<mxfile host="app.diagrams.net" modified="2023-09-27T07:08:33.851Z" agent="Mozilla/5.0 (Windows NT 10.0; Win64; x64) AppleWebKit/537.36 (KHTML, like Gecko) Chrome/117.0.0.0 Safari/537.36" etag="O3dBoEAfxcwKJAcu3Ukd" version="21.8.2" type="github" pages="2">
  <diagram id="C5RBs43oDa-KdzZeNtuy" name="推荐Core架构图">
    <mxGraphModel dx="3218" dy="1083" grid="1" gridSize="10" guides="1" tooltips="1" connect="1" arrows="1" fold="1" page="1" pageScale="1" pageWidth="827" pageHeight="1169" math="0" shadow="0">
      <root>
        <mxCell id="WIyWlLk6GJQsqaUBKTNV-0" />
        <mxCell id="WIyWlLk6GJQsqaUBKTNV-1" parent="WIyWlLk6GJQsqaUBKTNV-0" />
        <mxCell id="MLTlrfkZv9gM5Oj_lHoS-20" value="FlowEngin" style="rounded=0;whiteSpace=wrap;html=1;fillStyle=auto;align=left;verticalAlign=top;fillColor=#dae8fc;strokeColor=#6c8ebf;fontSize=14;labelBackgroundColor=none;fontColor=#f40606;" parent="WIyWlLk6GJQsqaUBKTNV-1" vertex="1">
          <mxGeometry x="40" y="440" width="640" height="400" as="geometry" />
        </mxCell>
        <mxCell id="MLTlrfkZv9gM5Oj_lHoS-21" value="分桶&lt;br&gt;转发" style="edgeStyle=orthogonalEdgeStyle;rounded=0;orthogonalLoop=1;jettySize=auto;html=1;exitX=0.5;exitY=1;exitDx=0;exitDy=0;fontSize=14;" parent="WIyWlLk6GJQsqaUBKTNV-1" source="MLTlrfkZv9gM5Oj_lHoS-0" target="MLTlrfkZv9gM5Oj_lHoS-3" edge="1">
          <mxGeometry relative="1" as="geometry">
            <Array as="points">
              <mxPoint x="360" y="400" />
              <mxPoint x="460" y="400" />
            </Array>
          </mxGeometry>
        </mxCell>
        <mxCell id="MLTlrfkZv9gM5Oj_lHoS-0" value="Kong 网关" style="rounded=0;whiteSpace=wrap;html=1;fillStyle=auto;fillColor=#dae8fc;strokeColor=#6c8ebf;fontSize=14;labelBackgroundColor=none;fontColor=#f40606;" parent="WIyWlLk6GJQsqaUBKTNV-1" vertex="1">
          <mxGeometry x="40" y="280" width="640" height="80" as="geometry" />
        </mxCell>
        <mxCell id="MLTlrfkZv9gM5Oj_lHoS-3" value="Core包" style="rounded=0;whiteSpace=wrap;html=1;align=left;verticalAlign=top;fontSize=14;" parent="WIyWlLk6GJQsqaUBKTNV-1" vertex="1">
          <mxGeometry x="320" y="480" width="280" height="320" as="geometry" />
        </mxCell>
        <mxCell id="MLTlrfkZv9gM5Oj_lHoS-22" style="edgeStyle=orthogonalEdgeStyle;rounded=0;orthogonalLoop=1;jettySize=auto;html=1;exitX=0.5;exitY=1;exitDx=0;exitDy=0;entryX=0.5;entryY=0;entryDx=0;entryDy=0;endArrow=none;endFill=0;fontSize=14;" parent="WIyWlLk6GJQsqaUBKTNV-1" source="MLTlrfkZv9gM5Oj_lHoS-6" target="MLTlrfkZv9gM5Oj_lHoS-7" edge="1">
          <mxGeometry relative="1" as="geometry" />
        </mxCell>
        <mxCell id="MLTlrfkZv9gM5Oj_lHoS-6" value="init node" style="rounded=1;whiteSpace=wrap;html=1;fontSize=14;" parent="WIyWlLk6GJQsqaUBKTNV-1" vertex="1">
          <mxGeometry x="400" y="500" width="120" height="40" as="geometry" />
        </mxCell>
        <mxCell id="MLTlrfkZv9gM5Oj_lHoS-23" style="edgeStyle=orthogonalEdgeStyle;rounded=0;orthogonalLoop=1;jettySize=auto;html=1;exitX=0.5;exitY=1;exitDx=0;exitDy=0;endArrow=none;endFill=0;fontSize=14;" parent="WIyWlLk6GJQsqaUBKTNV-1" source="MLTlrfkZv9gM5Oj_lHoS-7" target="MLTlrfkZv9gM5Oj_lHoS-8" edge="1">
          <mxGeometry relative="1" as="geometry" />
        </mxCell>
        <mxCell id="MLTlrfkZv9gM5Oj_lHoS-7" value="recall node" style="rounded=1;whiteSpace=wrap;html=1;fontSize=14;" parent="WIyWlLk6GJQsqaUBKTNV-1" vertex="1">
          <mxGeometry x="400" y="560" width="120" height="40" as="geometry" />
        </mxCell>
        <mxCell id="MLTlrfkZv9gM5Oj_lHoS-24" style="edgeStyle=orthogonalEdgeStyle;rounded=0;orthogonalLoop=1;jettySize=auto;html=1;exitX=0.5;exitY=1;exitDx=0;exitDy=0;entryX=0.5;entryY=0;entryDx=0;entryDy=0;endArrow=none;endFill=0;fontSize=14;" parent="WIyWlLk6GJQsqaUBKTNV-1" source="MLTlrfkZv9gM5Oj_lHoS-8" target="MLTlrfkZv9gM5Oj_lHoS-9" edge="1">
          <mxGeometry relative="1" as="geometry" />
        </mxCell>
        <mxCell id="MLTlrfkZv9gM5Oj_lHoS-8" value="score node" style="rounded=1;whiteSpace=wrap;html=1;fontSize=14;" parent="WIyWlLk6GJQsqaUBKTNV-1" vertex="1">
          <mxGeometry x="400" y="620" width="120" height="40" as="geometry" />
        </mxCell>
        <mxCell id="MLTlrfkZv9gM5Oj_lHoS-25" style="edgeStyle=orthogonalEdgeStyle;rounded=0;orthogonalLoop=1;jettySize=auto;html=1;exitX=0.5;exitY=1;exitDx=0;exitDy=0;entryX=0.5;entryY=0;entryDx=0;entryDy=0;endArrow=none;endFill=0;fontSize=14;" parent="WIyWlLk6GJQsqaUBKTNV-1" source="MLTlrfkZv9gM5Oj_lHoS-9" target="MLTlrfkZv9gM5Oj_lHoS-10" edge="1">
          <mxGeometry relative="1" as="geometry" />
        </mxCell>
        <mxCell id="MLTlrfkZv9gM5Oj_lHoS-9" value="rank node" style="rounded=1;whiteSpace=wrap;html=1;fontSize=14;" parent="WIyWlLk6GJQsqaUBKTNV-1" vertex="1">
          <mxGeometry x="400" y="680" width="120" height="40" as="geometry" />
        </mxCell>
        <mxCell id="MLTlrfkZv9gM5Oj_lHoS-10" value="return node" style="rounded=1;whiteSpace=wrap;html=1;fontSize=14;" parent="WIyWlLk6GJQsqaUBKTNV-1" vertex="1">
          <mxGeometry x="400" y="740" width="120" height="40" as="geometry" />
        </mxCell>
        <mxCell id="MLTlrfkZv9gM5Oj_lHoS-11" value="推荐中台" style="rounded=0;whiteSpace=wrap;html=1;align=left;verticalAlign=top;fillStyle=auto;fillColor=#dae8fc;strokeColor=#6c8ebf;fontSize=14;labelBackgroundColor=none;fontColor=#f40606;" parent="WIyWlLk6GJQsqaUBKTNV-1" vertex="1">
          <mxGeometry x="-240" y="280" width="200" height="560" as="geometry" />
        </mxCell>
        <mxCell id="MLTlrfkZv9gM5Oj_lHoS-12" value="空间" style="rounded=0;whiteSpace=wrap;html=1;fontSize=14;" parent="WIyWlLk6GJQsqaUBKTNV-1" vertex="1">
          <mxGeometry x="-200" y="320" width="80" height="40" as="geometry" />
        </mxCell>
        <mxCell id="MLTlrfkZv9gM5Oj_lHoS-13" value="场景" style="rounded=0;whiteSpace=wrap;html=1;fontSize=14;" parent="WIyWlLk6GJQsqaUBKTNV-1" vertex="1">
          <mxGeometry x="-200" y="400" width="80" height="40" as="geometry" />
        </mxCell>
        <mxCell id="MLTlrfkZv9gM5Oj_lHoS-17" value="" style="edgeStyle=orthogonalEdgeStyle;rounded=0;orthogonalLoop=1;jettySize=auto;html=1;fontSize=14;" parent="WIyWlLk6GJQsqaUBKTNV-1" source="MLTlrfkZv9gM5Oj_lHoS-14" target="MLTlrfkZv9gM5Oj_lHoS-16" edge="1">
          <mxGeometry relative="1" as="geometry">
            <Array as="points">
              <mxPoint x="-160" y="660" />
            </Array>
          </mxGeometry>
        </mxCell>
        <mxCell id="MLTlrfkZv9gM5Oj_lHoS-18" style="edgeStyle=orthogonalEdgeStyle;rounded=0;orthogonalLoop=1;jettySize=auto;html=1;exitX=0.5;exitY=1;exitDx=0;exitDy=0;entryX=0;entryY=0.5;entryDx=0;entryDy=0;fontSize=14;" parent="WIyWlLk6GJQsqaUBKTNV-1" source="MLTlrfkZv9gM5Oj_lHoS-14" target="MLTlrfkZv9gM5Oj_lHoS-15" edge="1">
          <mxGeometry relative="1" as="geometry" />
        </mxCell>
        <mxCell id="MLTlrfkZv9gM5Oj_lHoS-19" value="流量配&lt;br&gt;置下发" style="edgeStyle=orthogonalEdgeStyle;rounded=0;orthogonalLoop=1;jettySize=auto;html=1;exitX=1;exitY=0.5;exitDx=0;exitDy=0;fontSize=14;dashed=1;" parent="WIyWlLk6GJQsqaUBKTNV-1" source="MLTlrfkZv9gM5Oj_lHoS-11" target="MLTlrfkZv9gM5Oj_lHoS-0" edge="1">
          <mxGeometry x="0.1871" relative="1" as="geometry">
            <mxPoint y="-1" as="offset" />
          </mxGeometry>
        </mxCell>
        <mxCell id="MLTlrfkZv9gM5Oj_lHoS-14" value="流量组" style="rounded=0;whiteSpace=wrap;html=1;fontSize=14;" parent="WIyWlLk6GJQsqaUBKTNV-1" vertex="1">
          <mxGeometry x="-200" y="480" width="80" height="40" as="geometry" />
        </mxCell>
        <mxCell id="MLTlrfkZv9gM5Oj_lHoS-15" value="分桶 AI" style="rounded=0;whiteSpace=wrap;html=1;fontSize=14;" parent="WIyWlLk6GJQsqaUBKTNV-1" vertex="1">
          <mxGeometry x="-140" y="560" width="80" height="40" as="geometry" />
        </mxCell>
        <mxCell id="MLTlrfkZv9gM5Oj_lHoS-16" value="分桶 ctrl" style="rounded=0;whiteSpace=wrap;html=1;fontSize=14;" parent="WIyWlLk6GJQsqaUBKTNV-1" vertex="1">
          <mxGeometry x="-140" y="640" width="80" height="40" as="geometry" />
        </mxCell>
        <mxCell id="MLTlrfkZv9gM5Oj_lHoS-27" value="flow编排&lt;br&gt;配置信息" style="edgeStyle=orthogonalEdgeStyle;rounded=0;orthogonalLoop=1;jettySize=auto;html=1;entryX=1;entryY=0.5;entryDx=0;entryDy=0;dashed=1;fontSize=14;" parent="WIyWlLk6GJQsqaUBKTNV-1" source="MLTlrfkZv9gM5Oj_lHoS-26" target="MLTlrfkZv9gM5Oj_lHoS-3" edge="1">
          <mxGeometry x="-0.2495" relative="1" as="geometry">
            <Array as="points">
              <mxPoint x="720" y="560" />
              <mxPoint x="720" y="640" />
            </Array>
            <mxPoint y="-1" as="offset" />
          </mxGeometry>
        </mxCell>
        <mxCell id="MLTlrfkZv9gM5Oj_lHoS-26" value="&lt;font color=&quot;#ed0c0c&quot;&gt;Apollo 配置&lt;/font&gt;&lt;br&gt;大Json（节点配置、&lt;br style=&quot;font-size: 14px;&quot;&gt;节点Function配置、&lt;br style=&quot;font-size: 14px;&quot;&gt;路由编排配置）" style="rounded=0;whiteSpace=wrap;html=1;fillStyle=auto;fillColor=#dae8fc;strokeColor=#6c8ebf;fontSize=14;" parent="WIyWlLk6GJQsqaUBKTNV-1" vertex="1">
          <mxGeometry x="760" y="280" width="200" height="560" as="geometry" />
        </mxCell>
        <mxCell id="MLTlrfkZv9gM5Oj_lHoS-30" value="用户请求" style="edgeStyle=orthogonalEdgeStyle;rounded=0;orthogonalLoop=1;jettySize=auto;html=1;fontSize=14;" parent="WIyWlLk6GJQsqaUBKTNV-1" source="MLTlrfkZv9gM5Oj_lHoS-29" target="MLTlrfkZv9gM5Oj_lHoS-0" edge="1">
          <mxGeometry relative="1" as="geometry" />
        </mxCell>
        <mxCell id="MLTlrfkZv9gM5Oj_lHoS-29" value="业务系统" style="rounded=0;whiteSpace=wrap;html=1;fillStyle=auto;fillColor=#f5f5f5;fontColor=#333333;strokeColor=#666666;fontSize=14;" parent="WIyWlLk6GJQsqaUBKTNV-1" vertex="1">
          <mxGeometry x="-240" y="120" width="1200" height="80" as="geometry" />
        </mxCell>
        <mxCell id="MLTlrfkZv9gM5Oj_lHoS-31" value="AIOS （K8S）" style="rounded=0;whiteSpace=wrap;html=1;fillStyle=auto;fillColor=#f5f5f5;strokeColor=#666666;fontColor=#333333;fontSize=14;" parent="WIyWlLk6GJQsqaUBKTNV-1" vertex="1">
          <mxGeometry x="-240" y="880" width="1200" height="80" as="geometry" />
        </mxCell>
        <mxCell id="MLTlrfkZv9gM5Oj_lHoS-34" value="user" style="shape=umlActor;verticalLabelPosition=bottom;verticalAlign=top;html=1;outlineConnect=0;" parent="WIyWlLk6GJQsqaUBKTNV-1" vertex="1">
          <mxGeometry x="345" y="20" width="30" height="60" as="geometry" />
        </mxCell>
      </root>
    </mxGraphModel>
  </diagram>
  <diagram id="PC9kYvpRPBjFJB2nELag" name="Page-2">
    <mxGraphModel dx="200" dy="491" grid="1" gridSize="10" guides="1" tooltips="1" connect="1" arrows="1" fold="1" page="1" pageScale="1" pageWidth="850" pageHeight="1100" math="0" shadow="0">
      <root>
        <mxCell id="0" />
        <mxCell id="1" parent="0" />
        <mxCell id="gILgUfDWuaYUB37HKCbw-5" value="" style="edgeStyle=orthogonalEdgeStyle;rounded=0;orthogonalLoop=1;jettySize=auto;html=1;" edge="1" parent="1" source="gILgUfDWuaYUB37HKCbw-2" target="gILgUfDWuaYUB37HKCbw-4">
          <mxGeometry relative="1" as="geometry" />
        </mxCell>
        <mxCell id="gILgUfDWuaYUB37HKCbw-7" value="" style="edgeStyle=orthogonalEdgeStyle;rounded=0;orthogonalLoop=1;jettySize=auto;html=1;" edge="1" parent="1" source="gILgUfDWuaYUB37HKCbw-2" target="gILgUfDWuaYUB37HKCbw-6">
          <mxGeometry relative="1" as="geometry" />
        </mxCell>
        <mxCell id="gILgUfDWuaYUB37HKCbw-2" value="" style="ellipse;html=1;shape=startState;fillColor=#000000;strokeColor=#ff0000;" vertex="1" parent="1">
          <mxGeometry x="1000" y="40" width="40" height="40" as="geometry" />
        </mxCell>
        <mxCell id="gILgUfDWuaYUB37HKCbw-4" value="InitRtidb，初始化Rtidb连接&lt;br&gt;&amp;lt;InitRtidb&amp;gt;" style="rounded=1;whiteSpace=wrap;html=1;align=left;" vertex="1" parent="1">
          <mxGeometry x="1280" y="120" width="200" height="40" as="geometry" />
        </mxCell>
        <mxCell id="gILgUfDWuaYUB37HKCbw-9" value="" style="edgeStyle=orthogonalEdgeStyle;rounded=0;orthogonalLoop=1;jettySize=auto;html=1;" edge="1" parent="1" source="gILgUfDWuaYUB37HKCbw-6" target="gILgUfDWuaYUB37HKCbw-10">
          <mxGeometry relative="1" as="geometry" />
        </mxCell>
        <mxCell id="gILgUfDWuaYUB37HKCbw-6" value="ScancodeInit，初始化Context对象&lt;br&gt;&amp;lt;Init&amp;gt;" style="rounded=1;whiteSpace=wrap;html=1;align=left;" vertex="1" parent="1">
          <mxGeometry x="920" y="120" width="200" height="40" as="geometry" />
        </mxCell>
        <mxCell id="gILgUfDWuaYUB37HKCbw-8" value="InitRtidb 初始化Rtidb连接&lt;br&gt;&amp;lt;com.yumc.pipeline.core.process.rtidb.init.InitRtidb&amp;gt;" style="rounded=1;whiteSpace=wrap;html=1;align=left;" vertex="1" parent="1">
          <mxGeometry x="920" y="320" width="200" height="40" as="geometry" />
        </mxCell>
        <mxCell id="gILgUfDWuaYUB37HKCbw-10" value="是否强推&lt;br&gt;&amp;lt;IsPush&lt;span style=&quot;background-color: initial;&quot;&gt;&amp;gt;&lt;/span&gt;" style="rhombus;whiteSpace=wrap;html=1;fontColor=#000000;fillColor=#ffffc0;strokeColor=#000000;" vertex="1" parent="1">
          <mxGeometry x="960" y="200" width="120" height="80" as="geometry" />
        </mxCell>
        <mxCell id="gILgUfDWuaYUB37HKCbw-11" value="no" style="edgeStyle=orthogonalEdgeStyle;html=1;align=left;verticalAlign=bottom;endArrow=open;endSize=8;strokeColor=#000000;rounded=0;entryX=0.5;entryY=0;entryDx=0;entryDy=0;" edge="1" source="gILgUfDWuaYUB37HKCbw-10" parent="1" target="gILgUfDWuaYUB37HKCbw-13">
          <mxGeometry x="-1" relative="1" as="geometry">
            <mxPoint x="1260" y="240" as="targetPoint" />
          </mxGeometry>
        </mxCell>
        <mxCell id="gILgUfDWuaYUB37HKCbw-12" value="yes" style="edgeStyle=orthogonalEdgeStyle;html=1;align=left;verticalAlign=top;endArrow=open;endSize=8;strokeColor=#000000;rounded=0;entryX=0.5;entryY=0;entryDx=0;entryDy=0;" edge="1" source="gILgUfDWuaYUB37HKCbw-10" parent="1" target="gILgUfDWuaYUB37HKCbw-8">
          <mxGeometry x="-1" relative="1" as="geometry">
            <mxPoint x="1120" y="320" as="targetPoint" />
          </mxGeometry>
        </mxCell>
        <mxCell id="gILgUfDWuaYUB37HKCbw-13" value="InitRtidb，初始化Rtidb连接&lt;br&gt;&amp;lt;InitRtidb&amp;gt;" style="rounded=1;whiteSpace=wrap;html=1;align=left;" vertex="1" parent="1">
          <mxGeometry x="1280" y="320" width="200" height="40" as="geometry" />
        </mxCell>
      </root>
    </mxGraphModel>
  </diagram>
</mxfile>
